<svg xmlns="http://www.w3.org/2000/svg" xmlns:xlink="http://www.w3.org/1999/xlink" version="1.1" x="0px" y="0px" viewBox="0 0 100 100" style="fill:white;enable-background:new 0 0 100 100;" xml:space="preserve"><path d="M87.5,70V20l-7.2,7.2c-4.8-2.9-10.8-2.9-15.6,0L57.5,20v20c-16.6,0-30,13.4-30,30c-5.5,0-10-4.5-10-10c0-5.5,4.5-10,10-10  c2.8,0,5-2.2,5-5s-2.2-5-5-5c-11,0-20,9-20,20s9,20,20,20h60c2.8,0,5-2.2,5-5S90.3,70,87.5,70z M65,40c-1.4,0-2.5-1.1-2.5-2.5  S63.6,35,65,35V40z M67.5,40v-5c1.4,0,2.5,1.1,2.5,2.5S68.9,40,67.5,40z M77.5,40c-1.4,0-2.5-1.1-2.5-2.5s1.1-2.5,2.5-2.5V40z   M80,40v-5c1.4,0,2.5,1.1,2.5,2.5S81.4,40,80,40z"/></svg>
